<svg xmlns="http://www.w3.org/2000/svg" width="30" height="27" viewBox="0 0 30 27"><g><g><path fill="#17191e" d="M29.347 10.65v10.953a1.918 1.918 0 0 1-1.914 1.914H13.5a.645.645 0 0 0-.639.638v2.393h-1.275v-2.393a1.916 1.916 0 0 1 1.914-1.913h13.932a.648.648 0 0 0 .638-.64V10.65a.647.647 0 0 0-.638-.637h-6.56c-.103 1.709-.589 3.258-1.36 4.446-.81 1.254-1.993 2.133-3.368 2.233v.02H9.35a1.914 1.914 0 0 1-1.777 1.222H5.817a1.919 1.919 0 0 1-1.914-1.914v-2.55H1.138a.64.64 0 0 1 0-1.278h2.765V6.875H1.138A.64.64 0 0 1 .5 6.236a.64.64 0 0 1 .637-.637h2.765V2.38A1.918 1.918 0 0 1 5.817.467h1.756A1.913 1.913 0 0 1 9.45 2.035h6.695v.02c1.375.1 2.557.98 3.368 2.231.771 1.193 1.257 2.74 1.36 4.448l6.56.002c1.056 0 1.91.856 1.914 1.913zM8.21 2.38a.646.646 0 0 0-.637-.639H5.817a.65.65 0 0 0-.638.64v13.637a.648.648 0 0 0 .638.637h1.756a.645.645 0 0 0 .637-.637zm6.66 13.052V3.313H9.513v12.12zm4.746-6.058c.002-1.74-.465-3.304-1.174-4.392-.652-.994-1.463-1.56-2.297-1.652v12.085c.834-.094 1.645-.659 2.297-1.654.71-1.086 1.176-2.65 1.174-4.387z"/></g></g></svg>