<svg xmlns="http://www.w3.org/2000/svg" width="18" height="18" viewBox="0 0 18 18"><g><g><path fill="#fff" d="M17.936 9.122a8.75 8.75 0 0 1-2.57 6.21 8.713 8.713 0 0 1-1.299 1.07 8.646 8.646 0 0 1-3.142 1.321 8.646 8.646 0 0 1-1.768.18 8.837 8.837 0 0 1-3.418-.69 8.65 8.65 0 0 1-1.492-.811 8.734 8.734 0 0 1-3.18-3.862 8.682 8.682 0 0 1-.692-3.418 8.728 8.728 0 0 1 .691-3.418 8.667 8.667 0 0 1 .81-1.491 8.773 8.773 0 0 1 2.371-2.37c.468-.318.97-.591 1.492-.812a8.836 8.836 0 0 1 5.186-.51 8.808 8.808 0 0 1 1.65.51c.522.22 1.024.494 1.492.812.465.313.9.675 1.3 1.073.396.396.757.832 1.07 1.297a8.685 8.685 0 0 1 1.322 3.142 8.78 8.78 0 0 1 .177 1.767zM14.948 4.36c-.015.022-1.217 1.76-4.178 2.968.174.358.342.721.498 1.088.055.13.11.258.163.387 2.576-.324 5.113.223 5.222.244a7.473 7.473 0 0 0-1.705-4.687zm-5.79-2.734c-.61 0-1.2.074-1.769.21.113.15 1.522 2.02 2.803 4.376 2.83-1.06 3.899-2.686 3.918-2.715a7.47 7.47 0 0 0-4.953-1.871zm-1.818.222l.02-.004v-.001a.075.075 0 0 1-.02.005zm-.004 0h.004-.004zm-5.52 5.73c.2.003 3.325.041 6.925-.916-1.297-2.306-2.686-4.186-2.784-4.32a7.515 7.515 0 0 0-4.14 5.236zm1.763 6.557l-.002-.004s2.05-3.642 6.098-4.949c.1-.031.197-.062.297-.088a23.659 23.659 0 0 0-.61-1.275c-3.86 1.154-7.567 1.07-7.7 1.068-.001.078-.005.156-.005.236a7.48 7.48 0 0 0 1.922 5.012zm8.504 1.895c-.11-.657-.545-2.954-1.602-5.694-.015.002-.03.008-.048.014-4.448 1.55-5.886 4.685-5.886 4.685s-.07-.05-.168-.13a7.475 7.475 0 0 0 4.778 1.718 7.48 7.48 0 0 0 2.926-.593zm4.478-5.715c-.156-.05-2.253-.715-4.673-.328.982 2.703 1.382 4.904 1.459 5.355a7.49 7.49 0 0 0 3.214-5.027z"/></g></g></svg>