<svg xmlns="http://www.w3.org/2000/svg" width="18" height="16" viewBox="0 0 18 16"><g><g><path fill="#fff" d="M17.848 6.876v.76c0 .205-.167.369-.37.369H14.81v2.67a.368.368 0 0 1-.369.367h-.76a.367.367 0 0 1-.369-.367v-2.67h-2.668a.37.37 0 0 1-.37-.37v-.76c0-.202.167-.368.37-.368h2.668V3.839c0-.204.165-.37.37-.37h.76a.37.37 0 0 1 .368.37v2.668h2.668a.37.37 0 0 1 .37.369zm-7.54 5.32c0 1.582-1.203 2.953-3.064 3.492a6.857 6.857 0 0 1-1.918.26c-.754 0-1.48-.086-2.154-.258-1.309-.33-2.278-.955-2.727-1.761a2.239 2.239 0 0 1-.293-1.108c0-.394.094-.797.281-1.193.715-1.53 2.606-2.557 4.698-2.557h.06a1.856 1.856 0 0 1-.252-.936c0-.161.02-.326.065-.494-2.196-.05-3.838-1.658-3.838-3.779C1.166 2.366 2.36.91 4.072.32A4.73 4.73 0 0 1 5.621.052h4.693c.16 0 .301.103.352.256a.366.366 0 0 1-.135.412l-1.05.761a.372.372 0 0 1-.217.069h-.377c.486.582.771 1.41.771 2.343 0 1.028-.521 2-1.467 2.743-.732.568-.76.724-.76 1.05.008.18.52.762 1.08 1.16 1.31.924 1.797 1.834 1.797 3.35zM5.316 14.46c2.022 0 3.047-.698 3.047-2.072 0-.131-.015-.264-.049-.399-.136-.535-.625-.867-1.363-1.371-.103-.07-.207-.143-.318-.217a3.57 3.57 0 0 0-1.008-.154h-.043c-1.598 0-2.998.969-2.998 2.072 0 1.201 1.2 2.14 2.732 2.14zM3.588 3.805c.183 1.39 1.197 2.59 2.213 2.622h.017c.381 0 .705-.15.955-.436.391-.447.565-1.18.463-1.96-.183-1.388-1.175-2.546-2.213-2.575h-.04c-.37 0-.696.15-.946.433-.387.442-.55 1.14-.45 1.916z"/></g></g></svg>