<svg xmlns="http://www.w3.org/2000/svg" width="48" height="44" viewBox="0 0 48 44"><g><g><path fill="#ffda00" d="M47.747 18.68c0 .038 0 .074-.002.1a3.036 3.036 0 0 1-.085.839c-.295 1.193-1.086 2.158-2.219 2.99v14.485c-.006 3.86-3.15 7.003-7.01 7.008H9.566c-3.862-.005-7.004-3.148-7.008-7.008V22.609C1.422 21.78.629 20.815.335 19.625a3.133 3.133 0 0 1-.087-.734c0-.041 0-.077.004-.106-.004-.03-.004-.064-.004-.106v-5.553c.004-3.087 2.16-5.777 5.103-5.807h9.577V3.046a3.153 3.153 0 0 1 3.15-3.149h11.844a3.154 3.154 0 0 1 3.146 3.149v4.273h9.578c2.94.03 5.1 2.72 5.106 5.807zM16.902 7.32h14.19V3.045a1.18 1.18 0 0 0-1.17-1.17H18.077a1.18 1.18 0 0 0-1.17 1.17zm26.346 16.565c-.389.181-.783.36-1.207.53-1.738.69-3.822 1.262-6.149 1.712a57.584 57.584 0 0 1-6 .814v2.11a2.477 2.477 0 0 1-2.472 2.473h-6.846a2.476 2.476 0 0 1-2.473-2.472v-2.11c-4.806-.409-9.025-1.292-12.147-2.526-.418-.17-.813-.346-1.198-.527-.068-.034-.152-.064-.22-.098v13.303c.007 2.758 2.269 5.021 5.03 5.029h28.866c2.761-.008 5.023-2.271 5.028-5.03V23.792c-.068.033-.146.062-.212.094zm-23.17 5.167c0 .262.232.493.496.493h6.846c.264 0 .495-.23.495-.493v-4.867a.508.508 0 0 0-.495-.495h-6.846a.508.508 0 0 0-.496.495zM5.352 9.3c-1.586.001-3.127 1.613-3.127 3.825v5.495c0 .02.005.056.01.103l.001.051-.002.053-.01.106c.006.07.02.156.042.265.103.676.949 1.604 2.48 2.47.1.055.203.108.309.165a16.81 16.81 0 0 0 .807.393c.261.118.53.236.819.347 2.247.892 5.23 1.605 8.649 2.07.894.12 1.817.225 2.771.309v-.768a2.476 2.476 0 0 1 2.473-2.475h6.846a2.476 2.476 0 0 1 2.472 2.475v.768a59.136 59.136 0 0 0 3.393-.392c3.16-.465 5.918-1.15 8.03-1.987.285-.11.548-.224.801-.34.156-.07.308-.14.452-.212a9.86 9.86 0 0 0 .35-.178c.113-.059.23-.12.34-.182 1.525-.863 2.37-1.79 2.472-2.47.024-.108.036-.196.038-.269a1.49 1.49 0 0 1-.004-.143c0-.06.002-.102.004-.132v-5.522c-.002-2.212-1.54-3.824-3.122-3.825z"/></g></g></svg>