<svg xmlns="http://www.w3.org/2000/svg" width="47" height="42" viewBox="0 0 47 42"><g><g><path fill="#ffda00" d="M22.712 40.61l.372-.35-.374.344c-6.184-6.187-11.698-11.558-15.7-16.13C3.032 19.885.443 16.2.383 12.815c0-.06-.005-.145.005-.257C.43 5.956 5.775.63 12.383.617c4.803 0 8.938 2.839 10.846 6.927l.267.574.01-.017.26-.561C25.68 3.456 29.815.618 34.621.618 41.25.63 46.598 5.985 46.61 12.563c.003.09.003.176.007.256-.062 3.385-2.654 7.067-6.63 11.66-3.996 4.561-9.496 9.924-15.67 16.098-.02.02-.035.039-.046.05l-.695.755-.767-.682c-.054-.048-.088-.084-.097-.09zM2.475 12.666v.035c0 .002-.003.043-.003.111-.057 2.19 2.171 5.841 6.11 10.285C12.354 27.41 17.6 32.552 23.5 38.44c5.913-5.902 11.149-11.035 14.915-15.337 3.94-4.444 6.171-8.095 6.115-10.284 0-.06-.004-.117-.008-.209a9.907 9.907 0 0 0-9.9-9.904c-3.961 0-7.381 2.342-8.965 5.718l-.26.563-.15.315-.033.052a2.033 2.033 0 0 1-1.714.954c-.793 0-1.45-.466-1.798-1.098-.01-.02-.051-.092-.1-.211l-.266-.574c-1.577-3.377-4.99-5.72-8.95-5.72a9.912 9.912 0 0 0-9.909 9.905zm21.07-4.438l.01.03s.004.004-.01-.03z"/></g></g></svg>