<svg xmlns="http://www.w3.org/2000/svg" width="27" height="26" viewBox="0 0 27 26"><g><g><path fill="#17191e" d="M9.674 17.73l-.903-.903 12.981-12.98L19.6 1.695a.657.657 0 0 0-.47-.193.658.658 0 0 0-.47.193L4.975 15.382l-.902-.902L17.756.794a1.94 1.94 0 0 1 2.746 0l5.206 5.203c.377.377.566.877.566 1.372 0 .493-.189.995-.566 1.372L12.02 22.429l-.903-.903L24.805 7.84h-.002a.653.653 0 0 0 .195-.47.661.661 0 0 0-.193-.47l-2.15-2.15zm-1.159 5.497c.26.264.466.577.474.991.007.324-.18.656-.427.828-.244.18-.52.253-.813.279l-5.175.443a1.902 1.902 0 0 1-.152.006h-.004c-.46 0-.896-.179-1.204-.488a1.681 1.681 0 0 1-.488-1.21c0-.056.001-.112.007-.167v.002l.443-5.157c.027-.294.098-.57.278-.816.17-.246.505-.433.829-.425.415.007.726.214.99.474zm-.97.835L2.44 18.956l-.435 5.068h-.006c.003.032.003.05.003.053.02.283.14.401.421.422l.054-.002z"/></g></g></svg>