<svg xmlns="http://www.w3.org/2000/svg" width="43" height="42"><path fill="#ffda00" d="M15.238 28.74l-1.477-1.477L35.004 6.02 31.482 2.5a1.085 1.085 0 0 0-1.537 0L7.548 24.898 6.07 23.42 28.466 1.025a3.174 3.174 0 0 1 2.247-.929c.81 0 1.628.308 2.247.929l8.516 8.515a3.18 3.18 0 0 1 .001 4.49l-22.399 22.4-1.477-1.479L40 12.554h-.002c.21-.21.316-.484.318-.77a1.08 1.08 0 0 0-.316-.767l-3.518-3.52zm-1.896 8.997c.425.43.763.942.775 1.62.012.531-.293 1.074-.697 1.355-.4.293-.852.414-1.33.457l-8.47.725c-.085.006-.167.01-.247.01h-.008a2.782 2.782 0 0 1-1.97-.8 2.757 2.757 0 0 1-.8-1.978 3 3 0 0 1 .012-.273H.61l.723-8.438c.043-.481.162-.931.455-1.334.278-.404.826-.71 1.356-.697.68.012 1.189.351 1.622.776zm-1.588 1.366l-8.356-8.356-.71 8.293h-.01l.005.086c.032.462.227.656.69.69.032 0 .066-.004.087-.004z"/></svg>