<svg xmlns="http://www.w3.org/2000/svg" width="25" height="25"><path fill="#17191e" d="M16.01 20.61h8.635v1.275H16.07a3.702 3.702 0 0 1-7.344.002H.353v-1.278h8.435a3.705 3.705 0 0 1 2.87-2.816v-1.605h1.276v1.573a3.705 3.705 0 0 1 3.075 2.85zm-1.184.812a2.432 2.432 0 0 0-2.426-2.428 2.434 2.434 0 0 0-2.43 2.428 2.433 2.433 0 0 0 2.43 2.427 2.43 2.43 0 0 0 2.426-2.427zm9.937-19.52v11.394a2.033 2.033 0 0 1-2.026 2.028H2.262a2.031 2.031 0 0 1-2.025-2.028V1.902A2.03 2.03 0 0 1 2.262-.125h20.475a2.032 2.032 0 0 1 2.026 2.027zm-1.277 11.395l.002-11.395a.759.759 0 0 0-.751-.749L2.262 1.15a.76.76 0 0 0-.749.752l-.002 11.395a.761.761 0 0 0 .751.75h20.475a.761.761 0 0 0 .75-.75z"/></svg>