<svg xmlns="http://www.w3.org/2000/svg" width="30" height="30"><path fill="#fff" d="M11.978 12.99a2.243 2.243 0 0 1-2.238 2.243 2.244 2.244 0 0 1-2.243-2.242 2.246 2.246 0 0 1 2.243-2.242 2.244 2.244 0 0 1 2.238 2.242zm-1.027 0a1.214 1.214 0 1 0-2.428.002 1.214 1.214 0 0 0 2.428-.001zm6.29 0a2.246 2.246 0 0 1-2.243 2.243 2.246 2.246 0 0 1-2.242-2.242 2.247 2.247 0 0 1 2.242-2.242 2.247 2.247 0 0 1 2.244 2.242zm-1.03 0c0-.667-.543-1.212-1.213-1.212a1.215 1.215 0 0 0 0 2.428c.67 0 1.214-.545 1.214-1.215zm6.29 0a2.245 2.245 0 0 1-2.244 2.243 2.246 2.246 0 0 1-2.243-2.242 2.247 2.247 0 0 1 2.243-2.242A2.246 2.246 0 0 1 22.5 12.99zm-1.03 0c0-.667-.544-1.212-1.214-1.212a1.215 1.215 0 0 0 0 2.428c.67 0 1.214-.545 1.214-1.215zm7.707-.083c0 3.652-1.77 7.104-4.869 9.506V29.7l-4.839-4.838a15.646 15.646 0 0 1-4.472.654C7.181 25.516.822 19.86.822 12.907.822 5.956 7.18.3 14.998.3c7.82 0 14.18 5.657 14.18 12.608zm-1.027 0c0-6.385-5.903-11.578-13.153-11.578-7.248 0-13.15 5.193-13.15 11.578 0 6.387 5.902 11.58 13.15 11.58 1.513 0 3.011-.234 4.46-.697l.299-.096 3.523 3.524v-5.319l.208-.154c2.964-2.21 4.663-5.43 4.663-8.838z"/></svg>