<svg xmlns="http://www.w3.org/2000/svg" width="25" height="30"><path fill="#fff" d="M23.902 18.498a.515.515 0 1 1 .729.729L22.357 21.5a12.891 12.891 0 0 1-8.535 3.771c-.147.953-.572 2.205-1.491 3.084h4.981c.286 0 .518.23.518.512a.516.516 0 0 1-.518.514H9.036a.515.515 0 0 1-.515-.514c0-.281.23-.512.515-.512h.643c2.258 0 2.915-2.1 3.103-3.072A12.862 12.862 0 0 1 3.994 21.5 12.892 12.892 0 0 1 .19 12.32c0-3.47 1.348-6.73 3.802-9.187L6.266.862a.513.513 0 1 1 .726.727l-1.91 1.908L6.653 5.07c1.797-1.62 4.082-2.54 6.524-2.54a9.723 9.723 0 0 1 6.919 2.87c3.691 3.69 3.779 9.601.328 13.44l1.571 1.571zM19.37 6.128a8.7 8.7 0 0 0-6.192-2.569c-2.343 0-4.54.913-6.198 2.569-3.415 3.412-3.41 8.968.005 12.382a8.702 8.702 0 0 0 6.193 2.566 8.7 8.7 0 0 0 6.192-2.566c3.415-3.414 3.415-8.97 0-12.382zm-18.153 6.19c0 3.194 1.245 6.198 3.506 8.456a11.873 11.873 0 0 0 8.455 3.501c3.018 0 5.844-1.146 8.053-3.175l-1.532-1.535c-1.8 1.62-4.082 2.54-6.521 2.54a9.732 9.732 0 0 1-6.921-2.866c-3.692-3.694-3.778-9.603-.33-13.44L4.39 4.26C2.36 6.473 1.216 9.3 1.216 12.32z"/></svg>