<svg xmlns="http://www.w3.org/2000/svg" width="18" height="18"><path fill="#fff" d="M17.71 11.78v2.559a3.182 3.182 0 0 1-3.18 3.181H3.472a3.184 3.184 0 0 1-3.183-3.18v-2.56a3.184 3.184 0 0 1 3.184-3.182h11.056a3.182 3.182 0 0 1 3.182 3.183zM5.796 9.72H2.748v.869h1.027v5.107h.993V10.59h1.027zM8.7 11.286h-.88v3.35a1.206 1.206 0 0 1-.274.238.495.495 0 0 1-.246.092c-.082 0-.143-.024-.18-.073-.035-.045-.057-.119-.057-.224v-3.383h-.88v3.687c0 .264.052.46.156.59.103.133.256.198.459.198.166 0 .336-.045.514-.141.175-.092.343-.229.507-.407v.483H8.7zm3.197 1.053c0-.362-.072-.637-.218-.825-.149-.187-.362-.28-.641-.28a.87.87 0 0 0-.406.105c-.133.068-.26.172-.377.304V9.72H9.36v5.976h.893v-.34a1.1 1.1 0 0 0 .377.301c.133.065.287.096.46.096.26 0 .462-.082.598-.25.139-.166.207-.406.207-.717zm3.057.134c0-.42-.107-.738-.324-.96-.217-.225-.527-.337-.932-.337-.394 0-.713.122-.963.362s-.375.555-.375.935v1.98c0 .427.116.76.34.999.227.244.537.363.934.363.44 0 .77-.111.988-.34.223-.23.332-.57.332-1.021v-.227h-.906v.201c0 .26-.03.426-.088.502-.059.076-.16.116-.307.116-.138 0-.24-.045-.299-.135-.058-.09-.084-.25-.084-.483v-.83h1.684zm-.998-.402c.06.076.092.209.092.395v.445h-.778v-.445c0-.186.028-.319.09-.395.06-.082.162-.123.301-.123.135 0 .234.041.295.123zm-3.059-.024c.063.079.092.19.092.34v2.278c0 .14-.025.24-.076.304-.05.063-.129.092-.236.092a.512.512 0 0 1-.215-.047.736.736 0 0 1-.207-.156V12.11a.624.624 0 0 1 .182-.135.424.424 0 0 1 .185-.043c.12 0 .21.04.275.115zM4.92 4.456L3.59.479h1.125l.724 2.633h.073L6.202.48h1.136l-1.3 3.854v2.732H4.92zM7.809 6.82c-.26-.246-.391-.572-.391-.986V3.317c0-.377.133-.676.4-.898.268-.22.627-.334 1.076-.334.413 0 .749.117 1.012.353.26.235.393.54.393.908v2.508c0 .416-.13.74-.385.979-.26.236-.613.354-1.064.354-.432 0-.782-.122-1.041-.366zm.63-.893a.43.43 0 0 0 .106.309c.07.072.17.108.303.108a.45.45 0 0 0 .32-.11.4.4 0 0 0 .12-.307V3.28a.319.319 0 0 0-.122-.256.484.484 0 0 0-.318-.098.438.438 0 0 0-.297.098.335.335 0 0 0-.112.256zm2.838.989c-.115-.145-.174-.36-.174-.65v-4.06h.99V5.93c0 .116.024.2.065.25.04.053.108.079.201.079a.576.576 0 0 0 .278-.104c.111-.066.213-.154.304-.26V2.209h.995v4.857h-.995v-.537c-.18.197-.37.348-.57.453a1.254 1.254 0 0 1-.574.155c-.23 0-.403-.075-.52-.22z"/></svg>