<svg xmlns="http://www.w3.org/2000/svg" width="27" height="27" viewBox="0 0 27 27"><g><g><path fill="#fff" d="M26.694 25.857c0 .03-.02.053-.023.082-.007.024.004.045-.002.069-.005.015-.02.023-.03.04a.513.513 0 0 1-.097.127c-.025.028-.045.053-.076.071-.011.008-.018.021-.033.03a.471.471 0 0 1-.206.046H1.142c-.01 0-.012-.004-.02-.006a.5.5 0 0 1-.187-.043c-.011-.006-.018-.02-.029-.027-.036-.02-.055-.047-.085-.074-.036-.04-.07-.075-.092-.123-.007-.018-.023-.026-.03-.041-.007-.024.004-.047 0-.07-.007-.028-.024-.053-.024-.085V10.18c0-.131.068-.242.16-.332.01-.008.006-.03.02-.037l2.956-2.29V.611c0-.258.21-.465.467-.465h18.813c.258 0 .467.207.467.465V7.52l2.955 2.291c.013.008.01.03.022.037a.48.48 0 0 1 .16.332zM1.606 24.9l8.886-6.884-6.5-5.037-2.386-1.848zm24.155.004V11.131l-.381.295-8.5 6.59 5.06 3.925zM23.558 8.702v2.956l1.91-1.478zm-18.813 3.52l8.941 6.93 8.938-6.93V1.08H4.745zM1.902 10.18l1.35 1.047.56.431V8.702zm22.96 15.209l-8.744-6.781-2.144 1.661a.468.468 0 0 1-.574 0l-2.147-1.661-8.748 6.779z"/></g></g></svg>